HIERARCHY
ROOT Hips
{
	OFFSET 0.000000 0.000000 0.000000 
	CHANNELS 6 Xposition Yposition Zposition Yrotation Zrotation Xrotation 
	JOINT Lumbar
	{
		OFFSET 0.000000 0.000000 0.000000 
		CHANNELS 3 Zrotation Xrotation Yrotation
		JOINT Neck
		{
			OFFSET 0.000000 0.445665 0.000000 
			CHANNELS 3 Zrotation Xrotation Yrotation
			End Site
			{
				OFFSET 0.000000 0.227535 0.000000 
			}
		}
		JOINT RightShoulder
		{
			OFFSET 0.019635 0.377685 0.194865 
			CHANNELS 3 Zrotation Xrotation Yrotation
			JOINT RightElbow
			{
				OFFSET 0.000000 -0.243375 0.000000 
				CHANNELS 2 Zrotation Yrotation
				JOINT RightWrist
				{
					OFFSET 0.000000 -0.264825 0.000000 
					CHANNELS 2 Zrotation Xrotation
					End Site
					{
						OFFSET 0.006600 -0.176220 0.000990 
					}
				}
			}
		}
		JOINT LeftShoulder
		{
			OFFSET 0.019635 0.377685 -0.194865 
			CHANNELS 3 Zrotation Xrotation Yrotation
			JOINT LeftElbow
			{
				OFFSET 0.000000 -0.243375 0.000000 
				CHANNELS 2 Zrotation Yrotation
				JOINT LeftWrist
				{
					OFFSET 0.000000 -0.264825 0.000000 
					CHANNELS 2 Zrotation Xrotation
					End Site
					{
						OFFSET 0.006600 -0.176220 -0.000990 
					}
				}
			}
		}
	}
	JOINT RightHip
	{
		OFFSET 0.052140 -0.069960 0.075570 
		CHANNELS 3 Zrotation Xrotation Yrotation
		JOINT RightKnee
		{
			OFFSET 0.000000 -0.402270 0.000000 
			CHANNELS 1 Zrotation
			JOINT RightAnkle
			{
				OFFSET 0.000000 -0.404085 0.000000 
				CHANNELS 3 Zrotation Xrotation Yrotation
				End Site
				{
					OFFSET 0.204105 -0.089430 0.008415 
				}
			}
		}
	}
	JOINT LeftHip
	{
		OFFSET 0.052140 -0.069960 -0.075570 
		CHANNELS 3 Zrotation Xrotation Yrotation
		JOINT LeftKnee
		{
			OFFSET 0.000000 -0.402270 0.000000 
			CHANNELS 1 Zrotation
			JOINT LeftAnkle
			{
				OFFSET 0.000000 -0.404085 0.000000 
				CHANNELS 3 Zrotation Xrotation Yrotation
				End Site
				{
					OFFSET 0.204105 -0.089430 -0.008415 
				}
			}
		}
	}
}
MOTION
Frames: 16
Frame Time: 0.02
-1.52511 -0.01666 -0.43992 154.8806 -33.61892 -2.84388 37.73449 2.7955 -11.93728 -22.93251 6.59353 -2.1197 -2.80134 -19.08963 6.40364 101.96206 80.46036 10.54066 -3.35975 -12.91753 21.34095 -16.3193 50.78331 -90.44169 8.53434 0.01667 27.14762 -9.29762 -3.06528 -6.43483 -8.18586 -1.79493 -3.19033 11.25717 5.08589 0.20304 0.53085 -13.69879 34.15981 19.19538
-1.5245 -0.0172 -0.4425 154.79382 -33.62061 -2.71823 37.5263 2.78867 -11.56816 -22.93368 7.21903 -2.1197 -2.39151 -19.0482 6.80176 100.66264 79.55159 11.13111 -3.5007 -13.52606 21.59316 -16.02007 50.94925 -90.79013 8.65849 -0.06669 28.29565 -9.26751 -3.25054 -8.65484 -8.29487 -1.83829 -3.21567 11.20095 5.0665 0.29675 0.53163 -13.63021 34.0451 19.16907
-1.52374 -0.01787 -0.44561 154.67877 -33.62108 -2.56918 37.26172 2.76313 -11.11036 -22.90132 8.03168 -2.1197 -1.71187 -18.99597 7.29899 98.886 78.44233 11.92576 -3.66208 -14.25678 21.93135 -15.75415 51.19436 -91.22266 8.82438 -0.17605 29.65862 -9.22322 -3.45538 -11.28728 -8.00485 -1.91609 -3.23855 11.13081 5.03869 0.41024 0.53237 -13.60583 33.99064 19.15507
-1.52308 -0.01847 -0.44854 154.57724 -33.63488 -2.43392 37.03468 2.74666 -10.69368 -22.88085 8.78705 -2.1197 -1.09673 -18.96066 7.81583 97.19748 77.58152 12.57716 -3.77671 -14.94525 22.224 -15.45516 51.39811 -91.61708 8.95535 -0.27798 30.91524 -9.17199 -3.66231 -13.6909 -7.90969 -1.98637 -3.26704 11.07832 5.02029 0.51292 0.53312 -13.57599 33.91823 19.13765
-1.52229 -0.01911 -0.4512 154.46975 -33.59715 -2.28476 36.7586 2.72594 -10.27126 -22.87251 9.42894 -2.11971 -0.71056 -18.87393 8.07093 96.0333 76.0665 13.43224 -4.04732 -15.58296 22.54523 -15.22902 51.62345 -92.01148 9.15166 -0.36204 32.22008 -9.1773 -3.81081 -16.28433 -7.76428 -2.03866 -3.28445 10.98 4.97671 0.62678 0.53393 -13.48012 33.80311 19.11046
-1.52174 -0.0197 -0.45456 154.3725 -33.66343 -2.15942 36.56831 2.7122 -9.8414 -22.8325 10.34974 -2.11971 0.19441 -18.89382 8.88081 93.68384 75.8537 13.91913 -4.00094 -16.35257 22.82691 -14.86188 51.82388 -92.42768 9.22568 -0.48872 33.4616 -9.06128 -4.0873 -18.56315 -7.62566 -2.13119 -3.32173 10.97131 4.98582 0.71841 0.53457 -13.53539 33.79111 19.10647
-1.52185 -0.02019 -0.45971 154.26947 -34.04322 -2.10258 36.65942 2.6992 -9.40421 -22.70489 11.99892 -2.11971 2.65934 -19.18797 11.31684 88.02284 79.39144 13.29017 -3.04863 -17.46776 22.97765 -14.07586 51.92705 -92.85667 8.91185 -0.7329 34.59295 -8.616 -4.74736 -20.01327 -7.60853 -2.32417 -3.4136 11.23555 5.12206 0.77292 0.53493 -13.97909 34.06393 19.16688
-1.52221 -0.02063 -0.46555 154.18544 -34.52286 -2.07079 36.83337 2.69802 -8.96519 -22.54929 13.91989 -2.11971 5.59891 -19.59347 14.28518 81.21768 84.22273 12.29363 -1.78259 -18.70959 23.08559 -13.15105 52.00489 -93.30745 8.47988 -1.01765 35.63151 -8.04883 -5.52968 -21.10624 -7.60953 -2.56018 -3.52734 11.58655 5.31508 0.79926 0.53505 -14.57706 34.43568 19.2494
-1.52247 -0.02107 -0.47108 154.11927 -34.93976 -2.02999 36.94939 2.70669 -8.53177 -22.41085 15.71488 -2.11971 8.19761 -19.96328 16.93265 75.03561 88.39794 11.49817 -0.67536 -19.88434 23.2133 -12.30373 52.09944 -93.76787 8.12904 -1.28006 36.63512 -7.53586 -6.23733 -22.26963 -7.59879 -2.76815 -3.6269 11.88319 5.49586 0.8187 0.53519 -15.11674 34.75389 19.32011
-1.52265 -0.02162 -0.47659 153.93958 -35.42999 -1.97973 37.14875 2.65097 -8.0718 -22.2483 17.53189 -2.11971 11.34373 -20.27143 19.91872 68.39095 92.87147 10.56555 0.50478 -21.10015 23.3425 -11.39609 52.17181 -94.15649 7.6673 -1.56087 37.97044 -7.02697 -7.03246 -23.83415 -7.59162 -2.98975 -3.73294 12.24165 5.62039 0.9202 0.53582 -15.60829 35.11298 19.39991
-1.52306 -0.02193 -0.48231 154.00206 -35.79112 -1.9537 37.19531 2.73176 -7.67196 -22.13499 19.35884 -2.11971 13.44684 -20.73253 22.32239 62.45751 97.01172 9.82931 1.60142 -22.2633 23.45755 -10.58147 52.28708 -94.68904 7.40357 -1.8114 38.59174 -6.48137 -7.6662 -24.47453 -7.58327 -3.22239 -3.8451 12.49302 5.87403 0.84612 0.53524 -16.23582 35.40632 19.46433
-1.5241 -0.02163 -0.48848 154.72034 -35.77193 -2.00315 36.7967 3.1921 -7.40386 -22.11993 21.19748 -2.11971 12.6539 -21.60486 23.00556 58.66002 100.10086 9.7198 2.44546 -23.21072 23.5404 -10.05117 52.49223 -95.69655 7.75338 -1.97876 37.24926 -5.86057 -7.89563 -22.63696 -7.5981 -3.21023 -3.84007 12.4196 6.48376 0.28948 0.53219 -17.1992 35.50775 19.48702
-1.52535 -0.02109 -0.49482 155.68231 -35.61928 -2.07337 36.24242 3.78822 -7.20304 -22.16378 23.02483 -2.1197 10.77465 -22.6232 23.0801 55.64173 102.77547 9.82107 3.18438 -24.10683 23.6101 -9.62052 52.7459 -96.83252 8.29964 -2.11208 35.19434 -5.20846 -7.94668 -19.88429 -7.60849 -3.25012 -3.86112 12.23679 7.21841 -0.43151 0.52765 -18.29086 35.52661 19.48732
-1.52648 -0.02065 -0.50106 156.53964 -35.52734 -2.12472 35.76147 4.31902 -6.99501 -22.2102 24.825 -2.1197 9.32594 -23.56559 23.42134 52.33818 105.52019 9.82778 3.93581 -25.05242 23.68855 -9.14812 53.00181 -97.85461 8.73042 -2.25416 33.47265 -4.57228 -8.03058 -17.55448 -7.60119 -3.44822 -3.95886 12.10945 7.88783 -1.08778 0.52335 -19.32917 35.58674 19.50006
-1.52773 -0.02026 -0.50745 157.37622 -35.43859 -2.21727 35.27192 4.86658 -6.68924 -22.1322 26.77726 -2.1197 8.16136 -24.55696 23.82412 48.69808 108.81268 9.81464 4.84761 -25.89479 23.75644 -8.65519 53.16095 -99.11077 9.26614 -2.42636 31.70281 -3.92188 -8.31571 -15.17391 -7.67274 -2.90794 -3.69725 11.9614 8.59732 -1.74649 0.52131 -20.36597 35.67608 19.52432
-1.52877 -0.0197 -0.51355 158.30815 -35.31027 -2.22795 34.7629 5.40998 -6.60174 -22.32715 28.39889 -2.1197 6.13977 -25.47376 23.94584 45.96602 110.84467 9.90012 5.3956 -26.93489 23.84052 -8.23145 53.5252 -99.91091 9.63347 -2.52676 29.87166 -3.29876 -8.14602 -12.69775 -7.58476 -3.88241 -4.17282 11.82863 9.24928 -2.38417 0.51369 -21.41684 35.6316 19.49351
